# xmcd CD database file
#
# Track frame offsets:
#	150
#	6487
#	21717
#	35990
#	49127
#	63005
#	77697
#	90682
#	104607
#	121355
#	136847
#	156605
#	170510
#	184500
#	220957
#	233955
#
# Disc length: 3322 seconds
#
# Revision: 1
# Processed by: cddbd v1.5.2PL0 Copyright (c) Steve Scherf et al.
# Submitted via: CDex 1.51
#
DISCID=e70cf810
DTITLE=The Glenn Miller Memorial Orchestra - The Glenn Miller Memorial Orchestra Live in Paris
DYEAR=2000
DGENRE=Jazz
TTITLE0=Moonlight Serenade
TTITLE1=American Patrol
TTITLE2=A string of Pearls
TTITLE3=Opus One
TTITLE4=I Know Why
TTITLE5=Tuxedo Junction
TTITLE6=Serenade In Blue
TTITLE7=Don't Sit Under the Appletree
TTITLE8=Stardust
TTITLE9=In the Mood
TTITLE10=St. Louis Blues
TTITLE11=Little Brown Jug
TTITLE12=Rhapsody in Blue
TTITLE13=Glenn Miller Vocal Medley (I've Got a Gal in Kalamazoo - On the Sunny Side of the Street - Perfidia - Elmer's Tune - It don't Mean a Thing)
TTITLE14=Pennsylvania 6-5000
TTITLE15=Chattanooga Choo Choo
EXTD=YEAR: 2000
EXTT0=
EXTT1=
EXTT2=
EXTT3=
EXTT4=
EXTT5=
EXTT6=
EXTT7=
EXTT8=
EXTT9=
EXTT10=
EXTT11=
EXTT12=
EXTT13=
EXTT14=
EXTT15=
PLAYORDER=
